<svg width="1296" height="255" viewBox="0 0 1296 255" fill="none" xmlns="http://www.w3.org/2000/svg">
<g clip-path="url(#clip0_277_274)">
<rect width="1296" height="255" rx="8" fill="#1E1A1C"/>
<path d="M633.189 56.3314C633.189 56.3314 636.667 72.009 650.12 93.2055" stroke="#363435" stroke-width="4" stroke-linecap="round"/>
<path d="M629.579 82.0405C637.891 75.8324 650.101 72.6175 650.101 72.6175" stroke="#363435" stroke-width="4" stroke-linecap="round"/>
<path d="M639.299 91.9517C638.258 69.6843 649.083 46.3766 649.083 46.3766" stroke="#363435" stroke-width="4" stroke-linecap="round"/>
<path d="M620.65 67.8038C633.833 75.9686 664.194 84.4371 664.194 84.4371" stroke="#363435" stroke-width="4" stroke-linecap="round"/>
<path d="M357.611 35.7745C391.506 36.0191 465.278 25.593 489.2 -18.0677C519.102 -72.6436 402.418 -51.7627 359.477 -36.0392C333.784 -26.6314 318.49 -12.6533 321.428 2.80633C323.957 16.116 357.844 30.4023 411.573 16.2734" stroke="#EBFD4A" stroke-width="5" stroke-linecap="round"/>
</g>
<defs>
<clipPath id="clip0_277_274">
<rect width="1296" height="255" fill="white"/>
</clipPath>
</defs>
</svg>
