<svg width="31" height="31" viewBox="0 0 31 31" fill="none" xmlns="http://www.w3.org/2000/svg">
<g clip-path="url(#clip0_380_10228)">
<path d="M15.5 4.468C13.2123 9.31271 9.31271 13.2123 4.468 15.5C9.3127 17.7877 13.2123 21.6873 15.5 26.532C17.7877 21.6873 21.6873 17.7877 26.532 15.5C21.6873 13.2123 17.7877 9.31271 15.5 4.468ZM5.19498 20.61C4.1177 22.8914 2.28139 24.7277 0 25.805C2.28139 26.8823 4.11773 28.7186 5.19504 31C6.27234 28.7186 8.10866 26.8823 10.39 25.805L10.3334 25.778C8.07765 24.6969 6.26311 22.8719 5.19498 20.61ZM25.805 0C25.7017 0.218924 25.591 0.434329 25.4733 0.645854C24.3672 2.63307 22.6665 4.22393 20.61 5.19504C22.8913 6.27236 24.7276 8.10867 25.805 10.39C26.8822 8.10865 28.7186 6.27233 30.9999 5.19504C28.7186 4.11769 26.8823 2.28137 25.805 0Z" fill="white"/>
</g>
<defs>
<clipPath id="clip0_380_10228">
<rect width="31" height="31" fill="white"/>
</clipPath>
</defs>
</svg>
