<svg width="32" height="32" viewBox="0 0 32 32" fill="none" xmlns="http://www.w3.org/2000/svg">
<path opacity="0.4" d="M25.3333 2.66666H6.66667C5.19391 2.66666 4 3.86056 4 5.33332V25.5391C4 27.3861 5.83216 28.6737 7.56992 28.0482L9.65227 27.2985C10.303 27.0643 11.0192 27.092 11.6498 27.3757L14.9057 28.8409C15.6016 29.1541 16.3984 29.1541 17.0943 28.8409L20.3502 27.3757C20.9808 27.092 21.697 27.0643 22.3477 27.2985L24.4301 28.0482C26.1678 28.6737 28 27.3861 28 25.5391V5.33332C28 3.86056 26.8061 2.66666 25.3333 2.66666Z" fill="#013838"/>
<path fill-rule="evenodd" clip-rule="evenodd" d="M23.6665 9.33331C23.6665 9.8856 23.2188 10.3333 22.6665 10.3333L9.33317 10.3333C8.78089 10.3333 8.33317 9.8856 8.33317 9.33331C8.33317 8.78103 8.78089 8.33331 9.33317 8.33331L22.6665 8.33331C23.2188 8.33331 23.6665 8.78103 23.6665 9.33331Z" fill="#013838"/>
<path fill-rule="evenodd" clip-rule="evenodd" d="M23.6665 14.6667C23.6665 15.2189 23.2188 15.6667 22.6665 15.6667L9.33317 15.6667C8.78089 15.6667 8.33317 15.2189 8.33317 14.6667C8.33317 14.1144 8.78089 13.6667 9.33317 13.6667L22.6665 13.6667C23.2188 13.6667 23.6665 14.1144 23.6665 14.6667Z" fill="#013838"/>
<path fill-rule="evenodd" clip-rule="evenodd" d="M17 20C17 20.5523 16.5523 21 16 21L9.33333 21C8.78105 21 8.33333 20.5523 8.33333 20C8.33333 19.4477 8.78105 19 9.33333 19L16 19C16.5523 19 17 19.4477 17 20Z" fill="#013838"/>
</svg>
