<svg width="24" height="24" viewBox="0 0 24 24" fill="none" xmlns="http://www.w3.org/2000/svg">
<g clip-path="url(#clip0_94_9435)">
<path d="M19 5C19.7956 5 20.5587 5.31607 21.1213 5.87868C21.6839 6.44129 22 7.20435 22 8V16C22 16.7956 21.6839 17.5587 21.1213 18.1213C20.5587 18.6839 19.7956 19 19 19H5C4.20435 19 3.44129 18.6839 2.87868 18.1213C2.31607 17.5587 2 16.7956 2 16V8C2 7.20435 2.31607 6.44129 2.87868 5.87868C3.44129 5.31607 4.20435 5 5 5H19ZM12 9C11.2304 9.00006 10.4902 9.29592 9.93255 9.82638C9.37492 10.3568 9.04248 11.0813 9.004 11.85L9 12C9 12.5933 9.17595 13.1734 9.50559 13.6667C9.83524 14.1601 10.3038 14.5446 10.8519 14.7716C11.4001 14.9987 12.0033 15.0581 12.5853 14.9424C13.1672 14.8266 13.7018 14.5409 14.1213 14.1213C14.5409 13.7018 14.8266 13.1672 14.9424 12.5853C15.0581 12.0033 14.9987 11.4001 14.7716 10.8519C14.5446 10.3038 14.1601 9.83524 13.6667 9.50559C13.1734 9.17595 12.5933 9 12 9ZM18.01 11H18C17.7348 11 17.4804 11.1054 17.2929 11.2929C17.1054 11.4804 17 11.7348 17 12C17 12.2652 17.1054 12.5196 17.2929 12.7071C17.4804 12.8946 17.7348 13 18 13H18.01C18.2752 13 18.5296 12.8946 18.7171 12.7071C18.9046 12.5196 19.01 12.2652 19.01 12C19.01 11.7348 18.9046 11.4804 18.7171 11.2929C18.5296 11.1054 18.2752 11 18.01 11ZM6.01 11H6C5.86868 11.0007 5.73877 11.0272 5.6177 11.078C5.49662 11.1289 5.38675 11.2031 5.29436 11.2964C5.20196 11.3898 5.12885 11.5004 5.07921 11.6219C5.02956 11.7435 5.00434 11.8737 5.005 12.005C5.00566 12.1363 5.03217 12.2662 5.08303 12.3873C5.1339 12.5084 5.20811 12.6182 5.30143 12.7106C5.39475 12.803 5.50536 12.8761 5.62694 12.9258C5.74851 12.9754 5.87868 13.0007 6.01 13C6.27522 13 6.52957 12.8946 6.71711 12.7071C6.90464 12.5196 7.01 12.2652 7.01 12C7.01 11.7348 6.90464 11.4804 6.71711 11.2929C6.52957 11.1054 6.27522 11 6.01 11Z" fill="#439D58"/>
</g>
<defs>
<clipPath id="clip0_94_9435">
<rect width="24" height="24" fill="white"/>
</clipPath>
</defs>
</svg>
