<svg width="32" height="32" viewBox="0 0 32 32" fill="none" xmlns="http://www.w3.org/2000/svg">
<path opacity="0.4" d="M17.3361 4H14.6694C8.04202 4 2.66943 9.37258 2.66943 16V22.6667C2.66943 25.6122 5.05725 28 8.00277 28H17.3361C23.9635 28 29.3361 22.6274 29.3361 16C29.3361 9.37258 23.9635 4 17.3361 4Z" fill="#013838"/>
<path fill-rule="evenodd" clip-rule="evenodd" d="M16.1513 9.33334C16.5757 9.33334 16.9198 9.67741 16.9198 10.1018V10.9764C18.1025 11.3109 18.9691 12.3983 18.9691 13.6881C18.9691 14.1125 18.625 14.4566 18.2006 14.4566C17.7761 14.4566 17.4321 14.1125 17.4321 13.6881C17.4321 12.9807 16.8586 12.4073 16.1513 12.4073C15.4439 12.4073 14.8705 12.9807 14.8705 13.6881C14.8705 14.3955 15.4439 14.9689 16.1513 14.9689C17.7075 14.9689 18.9691 16.2305 18.9691 17.7867C18.9691 19.0765 18.1025 20.1639 16.9198 20.4984V21.3729C16.9198 21.7974 16.5757 22.1414 16.1513 22.1414C15.7269 22.1414 15.3828 21.7974 15.3828 21.3729V20.4984C14.2001 20.1639 13.3335 19.0765 13.3335 17.7867C13.3335 17.3623 13.6776 17.0182 14.102 17.0182C14.5264 17.0182 14.8705 17.3623 14.8705 17.7867C14.8705 18.494 15.4439 19.0675 16.1513 19.0675C16.8586 19.0675 17.4321 18.494 17.4321 17.7867C17.4321 17.0793 16.8586 16.5059 16.1513 16.5059C14.5951 16.5059 13.3335 15.2443 13.3335 13.6881C13.3335 12.3983 14.2001 11.3109 15.3828 10.9764V10.1018C15.3828 9.67741 15.7269 9.33334 16.1513 9.33334Z" fill="#013838"/>
</svg>
