<svg width="40" height="40" viewBox="0 0 40 40" fill="none" xmlns="http://www.w3.org/2000/svg">
<path d="M30 3.33325H10C8.67393 3.33325 7.40216 3.86004 6.46447 4.79772C5.52679 5.7354 5.00001 7.00717 5.00001 8.33325V32.9999C4.99878 33.5633 5.14038 34.1178 5.41157 34.6117C5.68276 35.1055 6.0747 35.5225 6.55076 35.8238C7.02683 36.1251 7.5715 36.3008 8.13388 36.3345C8.69627 36.3682 9.25803 36.2588 9.76667 36.0166C10.1667 35.8166 10.5167 35.5999 10.8833 35.3833C11.5885 34.8538 12.4518 34.5778 13.3333 34.5999C14.22 34.5779 15.0885 34.8537 15.8 35.3833C17.0307 36.241 18.5 36.69 20 36.6666C21.5001 36.6911 22.9698 36.2421 24.2 35.3833C24.9109 34.8525 25.7798 34.5766 26.6667 34.5999C27.5486 34.5751 28.4127 34.8514 29.1167 35.3833C29.4777 35.6085 29.8504 35.8143 30.2333 35.9999C30.7407 36.2416 31.301 36.351 31.862 36.3181C32.423 36.2852 32.9666 36.1109 33.4422 35.8116C33.9178 35.5123 34.3101 35.0975 34.5824 34.6059C34.8548 34.1144 34.9984 33.5619 35 32.9999V8.33325C35 7.00717 34.4732 5.7354 33.5355 4.79772C32.5979 3.86004 31.3261 3.33325 30 3.33325ZM20 26.6666H13.3333C12.8913 26.6666 12.4674 26.491 12.1548 26.1784C11.8423 25.8659 11.6667 25.4419 11.6667 24.9999C11.6667 24.5579 11.8423 24.134 12.1548 23.8214C12.4674 23.5088 12.8913 23.3333 13.3333 23.3333H20C20.442 23.3333 20.866 23.5088 21.1785 23.8214C21.4911 24.134 21.6667 24.5579 21.6667 24.9999C21.6667 25.4419 21.4911 25.8659 21.1785 26.1784C20.866 26.491 20.442 26.6666 20 26.6666ZM26.6667 19.9999H13.3333C12.8913 19.9999 12.4674 19.8243 12.1548 19.5118C11.8423 19.1992 11.6667 18.7753 11.6667 18.3333C11.6667 17.8912 11.8423 17.4673 12.1548 17.1547C12.4674 16.8422 12.8913 16.6666 13.3333 16.6666H26.6667C27.1087 16.6666 27.5326 16.8422 27.8452 17.1547C28.1577 17.4673 28.3333 17.8912 28.3333 18.3333C28.3333 18.7753 28.1577 19.1992 27.8452 19.5118C27.5326 19.8243 27.1087 19.9999 26.6667 19.9999ZM26.6667 13.3333H13.3333C12.8913 13.3333 12.4674 13.1577 12.1548 12.8451C11.8423 12.5325 11.6667 12.1086 11.6667 11.6666C11.6667 11.2246 11.8423 10.8006 12.1548 10.4881C12.4674 10.1755 12.8913 9.99992 13.3333 9.99992H26.6667C27.1087 9.99992 27.5326 10.1755 27.8452 10.4881C28.1577 10.8006 28.3333 11.2246 28.3333 11.6666C28.3333 12.1086 28.1577 12.5325 27.8452 12.8451C27.5326 13.1577 27.1087 13.3333 26.6667 13.3333Z" fill="#122900"/>
</svg>
