<svg width="40" height="40" viewBox="0 0 40 40" fill="none" xmlns="http://www.w3.org/2000/svg">
<path d="M34.8218 27.0593L24.0039 8.32167C22.2369 5.22627 17.7686 5.22627 16.008 8.32167L5.18364 27.0593C3.41666 30.1547 5.61585 34.0001 9.18158 34.0001H30.7858C34.3515 34.0001 36.5888 30.1165 34.8218 27.0593ZM19.9996 29.8432C19.0589 29.8432 18.2771 29.0614 18.2771 28.1207C18.2771 27.18 19.0589 26.3982 19.9996 26.3982C20.9403 26.3982 21.722 27.18 21.6839 28.1652C21.7284 29.0614 20.9021 29.8432 19.9996 29.8432ZM21.5695 18.7074C21.4932 20.0422 21.4106 21.3706 21.3343 22.7054C21.2962 23.1376 21.2962 23.5317 21.2962 23.9575C21.2581 24.663 20.7051 25.2097 19.9996 25.2097C19.294 25.2097 18.7474 24.7012 18.7029 23.9957C18.5885 21.9172 18.4678 19.8769 18.3533 17.7985C18.3152 17.2519 18.2771 16.6989 18.2326 16.1523C18.2326 15.2497 18.7411 14.5061 19.5673 14.2709C20.3936 14.0739 21.2136 14.468 21.5695 15.2497C21.6903 15.5231 21.7284 15.7964 21.7284 16.1142C21.6903 16.9849 21.6076 17.8494 21.5695 18.7074Z" fill="#122900"/>
</svg>
