<svg width="41" height="41" viewBox="0 0 41 41" fill="none" xmlns="http://www.w3.org/2000/svg">
<g clip-path="url(#clip0_386_1680)">
<rect width="41" height="41" fill="#ACDB88"/>
<path d="M40.3153 15.7384L21.525 2.0727C20.8417 1.56024 20.1584 1.56024 19.4751 2.0727L0.684728 15.7384C-0.681869 16.5925 0.172264 18.8131 1.70966 18.8131H5.12611V37.6035C5.12611 38.6284 5.80937 39.3117 6.8343 39.3117H34.1657C35.1906 39.3117 35.8739 38.6284 35.8739 37.6035V18.8131H39.2903C40.8278 18.8131 41.6818 16.5925 40.3153 15.7384ZM20.5 35.8953C14.8629 35.8953 10.2507 31.2831 10.2507 25.646C10.2507 20.0089 14.8629 15.3968 20.5 15.3968C26.1371 15.3968 30.7493 20.0089 30.7493 25.646C30.7493 31.2831 26.1371 35.8953 20.5 35.8953Z" fill="#122900"/>
<path d="M23.0624 23.0837V17.9591H17.9377V23.0837H12.8131V28.2084H17.9377V33.333H23.0624V28.2084H28.187V23.0837H23.0624Z" fill="#122900"/>
</g>
<defs>
<clipPath id="clip0_386_1680">
<rect width="41" height="41" fill="white"/>
</clipPath>
</defs>
</svg>
