<svg width="25" height="25" viewBox="0 0 25 25" fill="none" xmlns="http://www.w3.org/2000/svg">
<path d="M18.1569 16.9747C17.2202 17.9113 15.2616 19.87 13.9138 21.2178C13.1327 21.9988 11.8677 21.9993 11.0866 21.2182C9.76234 19.8939 7.84159 17.9732 6.84315 16.9747C3.71895 13.8505 3.71895 8.78521 6.84315 5.66102C9.96734 2.53682 15.0327 2.53682 18.1569 5.66102C21.281 8.78521 21.281 13.8505 18.1569 16.9747Z" stroke="#7E8083" stroke-width="2" stroke-linecap="round" stroke-linejoin="round"/>
<path d="M15.5 11.3179C15.5 12.9747 14.1569 14.3179 12.5 14.3179C10.8431 14.3179 9.5 12.9747 9.5 11.3179C9.5 9.66102 10.8431 8.31787 12.5 8.31787C14.1569 8.31787 15.5 9.66102 15.5 11.3179Z" stroke="#7E8083" stroke-width="2" stroke-linecap="round" stroke-linejoin="round"/>
</svg>
