<svg width="24" height="24" viewBox="0 0 24 24" fill="none" xmlns="http://www.w3.org/2000/svg">
<path d="M11.6797 16.93L15.7497 21L17.5397 19.21C17.6439 19.1062 17.7239 18.9807 17.774 18.8424C17.8242 18.7042 17.8432 18.5565 17.8297 18.41L17.1797 11.3" stroke="#424242" stroke-width="2" stroke-linecap="round" stroke-linejoin="round"/>
<path d="M9.36799 4.71L7.99799 6.13M9.36799 17.46C9.46095 17.5537 9.57155 17.6281 9.69341 17.6789C9.81527 17.7297 9.94597 17.7558 10.078 17.7558C10.21 17.7558 10.3407 17.7297 10.4626 17.6789C10.5844 17.6281 10.695 17.5537 10.788 17.46L18.698 9.55C20.1693 8.07754 20.9965 6.08157 20.998 4C20.998 3.73478 20.8926 3.48043 20.7051 3.29289C20.5176 3.10536 20.2632 3 19.998 3C17.9164 3.00151 15.9204 3.82867 14.448 5.3L6.53799 13.21C6.44426 13.303 6.36986 13.4136 6.31909 13.5354C6.26833 13.6573 6.24219 13.788 6.24219 13.92C6.24219 14.052 6.26833 14.1827 6.31909 14.3046C6.36986 14.4264 6.44426 14.537 6.53799 14.63L9.36799 17.46ZM17.868 16L19.288 14.59L17.868 16Z" stroke="#424242" stroke-width="2" stroke-linecap="round" stroke-linejoin="round"/>
<path d="M12.75 6.81997L5.59 6.16997C5.44353 6.1565 5.2959 6.17551 5.15761 6.22564C5.01933 6.27576 4.89381 6.35578 4.79 6.45997L3 8.24997L7.09 12.34" stroke="#424242" stroke-width="2" stroke-linecap="round" stroke-linejoin="round"/>
</svg>
