<svg width="32" height="32" viewBox="0 0 32 32" fill="none" xmlns="http://www.w3.org/2000/svg">
<path opacity="0.4" d="M29.3385 16C29.3385 23.3638 23.369 29.3334 16.0052 29.3334C8.64141 29.3334 2.67188 23.3638 2.67188 16C2.67188 8.63622 8.64141 2.66669 16.0052 2.66669C23.369 2.66669 29.3385 8.63622 29.3385 16Z" fill="#013838"/>
<path fill-rule="evenodd" clip-rule="evenodd" d="M16.005 7.66669C16.5573 7.66669 17.005 8.1144 17.005 8.66669V9.80471C18.544 10.24 19.6717 11.655 19.6717 13.3334C19.6717 13.8856 19.224 14.3334 18.6717 14.3334C18.1194 14.3334 17.6717 13.8856 17.6717 13.3334C17.6717 12.4129 16.9255 11.6667 16.005 11.6667C15.0846 11.6667 14.3384 12.4129 14.3384 13.3334C14.3384 14.2538 15.0846 15 16.005 15C18.0301 15 19.6717 16.6416 19.6717 18.6667C19.6717 20.3451 18.544 21.76 17.005 22.1953V23.3334C17.005 23.8856 16.5573 24.3334 16.005 24.3334C15.4528 24.3334 15.005 23.8856 15.005 23.3334V22.1953C13.466 21.76 12.3384 20.3451 12.3384 18.6667C12.3384 18.1144 12.7861 17.6667 13.3384 17.6667C13.8907 17.6667 14.3384 18.1144 14.3384 18.6667C14.3384 19.5872 15.0846 20.3334 16.005 20.3334C16.9255 20.3334 17.6717 19.5872 17.6717 18.6667C17.6717 17.7462 16.9255 17 16.005 17C13.98 17 12.3384 15.3584 12.3384 13.3334C12.3384 11.655 13.466 10.24 15.005 9.80471V8.66669C15.005 8.1144 15.4528 7.66669 16.005 7.66669Z" fill="#013838"/>
</svg>
