<svg width="47" height="46" viewBox="0 0 47 46" fill="none" xmlns="http://www.w3.org/2000/svg">
<rect x="3.5" y="3" width="40" height="40" rx="20" fill="#F2F4F7"/>
<rect x="3.5" y="3" width="40" height="40" rx="20" stroke="#F9FAFB" stroke-width="6"/>
<g clip-path="url(#clip0_495_32368)">
<path d="M26.8333 26.3332L23.5 22.9999M23.5 22.9999L20.1666 26.3332M23.5 22.9999V30.4999M30.4916 28.3249C31.3044 27.8818 31.9465 27.1806 32.3165 26.3321C32.6866 25.4835 32.7635 24.5359 32.5351 23.6388C32.3068 22.7417 31.7862 21.9462 31.0555 21.3778C30.3248 20.8094 29.4257 20.5005 28.5 20.4999H27.45C27.1977 19.5243 26.7276 18.6185 26.0749 17.8507C25.4222 17.0829 24.604 16.4731 23.6817 16.0671C22.7594 15.661 21.7571 15.4694 20.7501 15.5065C19.743 15.5436 18.7575 15.8085 17.8676 16.2813C16.9777 16.7541 16.2066 17.4225 15.6122 18.2362C15.0177 19.05 14.6155 19.9879 14.4358 20.9794C14.256 21.9709 14.3034 22.9903 14.5743 23.961C14.8452 24.9316 15.3327 25.8281 16 26.5832" stroke="#475467" stroke-width="1.66667" stroke-linecap="round" stroke-linejoin="round"/>
</g>
<defs>
<clipPath id="clip0_495_32368">
<rect width="20" height="20" fill="white" transform="translate(13.5 13)"/>
</clipPath>
</defs>
</svg>
