<svg width="24" height="24" viewBox="0 0 24 24" fill="none" xmlns="http://www.w3.org/2000/svg">
<g clip-path="url(#clip0_515_487)">
<rect width="24" height="24" fill="white"/>
<path d="M12 14.61C14.8995 14.61 17.25 12.2595 17.25 9.35999C17.25 6.46049 14.8995 4.10999 12 4.10999C9.10051 4.10999 6.75 6.46049 6.75 9.35999C6.75 12.2595 9.10051 14.61 12 14.61Z" fill="#012020"/>
<path d="M15.7275 16.11H8.2725C6.67584 16.112 5.14515 16.7471 4.01614 17.8761C2.88713 19.0051 2.25198 20.5358 2.25 22.1325V25.86C2.25 26.0589 2.32902 26.2497 2.46967 26.3903C2.61032 26.531 2.80109 26.61 3 26.61H21C21.1989 26.61 21.3897 26.531 21.5303 26.3903C21.671 26.2497 21.75 26.0589 21.75 25.86V22.1325C21.748 20.5358 21.1129 19.0051 19.9839 17.8761C18.8549 16.7471 17.3242 16.112 15.7275 16.11Z" fill="#012020"/>
</g>
<defs>
<clipPath id="clip0_515_487">
<rect width="24" height="24" fill="white"/>
</clipPath>
</defs>
</svg>
