<svg width="19" height="19" viewBox="0 0 19 19" fill="none" xmlns="http://www.w3.org/2000/svg">
<rect width="19" height="19" fill="#1E1E1E"/>
<rect width="1440" height="1024" transform="translate(-66 -966)" fill="white"/>
<path d="M17.9982 11.3867L16.4169 13.4361L12.4707 13.4604" stroke="black" stroke-width="1.0403" stroke-miterlimit="10"/>
<path d="M15.9019 15.3919L13.5022 16.3698L10.0762 14.4141" stroke="black" stroke-width="1.0403" stroke-miterlimit="10"/>
<path d="M12.0739 17.8065L9.51129 17.4493L7.53125 14.0371" stroke="black" stroke-width="1.0403" stroke-miterlimit="10"/>
<path d="M7.55657 17.973L5.51758 16.3779V12.4316" stroke="black" stroke-width="1.0403" stroke-miterlimit="10"/>
<path d="M3.55972 15.8465L2.5957 13.4434L4.57574 10.0312" stroke="black" stroke-width="1.0403" stroke-miterlimit="10"/>
<path d="M1.16992 12.0062L1.54443 9.44362L4.97049 7.48438" stroke="black" stroke-width="1.0403" stroke-miterlimit="10"/>
<path d="M1.03516 7.4817L2.64416 5.45312L6.59037 5.47739" stroke="black" stroke-width="1.0403" stroke-miterlimit="10"/>
<path d="M3.1875 3.50332L5.59753 2.55664L8.99932 4.56096" stroke="black" stroke-width="1.0403" stroke-miterlimit="10"/>
<path d="M7.04492 1.13867L9.60406 1.53052L11.539 4.96699" stroke="black" stroke-width="1.0403" stroke-miterlimit="10"/>
<path d="M11.5684 1.0332L13.5865 2.65608L13.5345 6.60229" stroke="black" stroke-width="1.0403" stroke-miterlimit="10"/>
<path d="M15.5318 3.21094L16.4646 5.62444L14.4395 9.01235" stroke="black" stroke-width="1.0403" stroke-miterlimit="10"/>
<path d="M17.8697 7.08398L17.464 9.63966L14.0137 11.5538" stroke="black" stroke-width="1.0403" stroke-miterlimit="10"/>
</svg>
