<svg width="36" height="36" viewBox="0 0 36 36" fill="none" xmlns="http://www.w3.org/2000/svg">
<circle cx="18" cy="18" r="18" fill="#013838"/>
<path d="M27.9676 20.1873L26.1062 22.5993L21.4609 22.6279" stroke="white" stroke-width="1.7337" stroke-miterlimit="10"/>
<path d="M25.4983 24.9012L22.6736 26.0522L18.6406 23.7503" stroke="white" stroke-width="1.7337" stroke-miterlimit="10"/>
<path d="M20.9958 27.7414L17.9792 27.321L15.6484 23.3049" stroke="white" stroke-width="1.7337" stroke-miterlimit="10"/>
<path d="M15.6736 27.938L13.2734 26.0606V21.416" stroke="white" stroke-width="1.7337" stroke-miterlimit="10"/>
<path d="M10.9707 25.435L9.83594 22.6066L12.1667 18.5906" stroke="white" stroke-width="1.7337" stroke-miterlimit="10"/>
<path d="M8.15625 20.914L8.5971 17.8978L12.6301 15.5919" stroke="white" stroke-width="1.7337" stroke-miterlimit="10"/>
<path d="M8 15.5912L9.89403 13.2036L14.5393 13.2322" stroke="white" stroke-width="1.7337" stroke-miterlimit="10"/>
<path d="M10.5312 10.9065L13.3682 9.7923L17.3726 12.1513" stroke="white" stroke-width="1.7337" stroke-miterlimit="10"/>
<path d="M15.0703 8.12708L18.0828 8.58827L20.3605 12.6329" stroke="white" stroke-width="1.7337" stroke-miterlimit="10"/>
<path d="M20.3984 7.99988L22.7741 9.90996L22.7129 14.5546" stroke="white" stroke-width="1.7337" stroke-miterlimit="10"/>
<path d="M25.0593 10.563L26.1573 13.4036L23.7734 17.3911" stroke="white" stroke-width="1.7337" stroke-miterlimit="10"/>
<path d="M27.8126 15.1229L27.335 18.1309L23.2734 20.3838" stroke="white" stroke-width="1.7337" stroke-miterlimit="10"/>
</svg>
