<svg width="88" height="25" viewBox="0 0 88 25" fill="none" xmlns="http://www.w3.org/2000/svg">
<path d="M31.216 6.8H33.504V16H37.968V18H31.216V6.8ZM41.7949 15.456L42.0669 13.648H47.4429L47.7149 15.456H41.7949ZM44.7229 10.432L43.0429 14.288L43.0909 14.8L41.6189 18H39.0429L44.7229 6.144L50.4029 18H47.8109L46.3709 14.896L46.4029 14.32L44.7229 10.432ZM52.0979 6.8H54.3859V18H52.0979V6.8ZM53.4899 8.736V6.8H55.7139C56.5992 6.8 57.3512 6.944 57.9699 7.232C58.5992 7.52 59.0792 7.93067 59.4099 8.464C59.7405 8.99733 59.9059 9.632 59.9059 10.368C59.9059 11.0933 59.7405 11.728 59.4099 12.272C59.0792 12.8053 58.5992 13.216 57.9699 13.504C57.3512 13.792 56.5992 13.936 55.7139 13.936H53.4899V12H55.7139C56.3219 12 56.8019 11.8613 57.1539 11.584C57.5059 11.3067 57.6819 10.9013 57.6819 10.368C57.6819 9.824 57.5059 9.41867 57.1539 9.152C56.8019 8.87467 56.3219 8.736 55.7139 8.736H53.4899ZM62.156 6.8H64.476V18H62.156V6.8ZM67.2904 6.8H69.5784V14.176C69.5784 14.816 69.7437 15.3333 70.0744 15.728C70.4157 16.112 70.917 16.304 71.5784 16.304C72.2397 16.304 72.7357 16.112 73.0664 15.728C73.4077 15.3333 73.5784 14.816 73.5784 14.176V6.8H75.8664V14.32C75.8664 14.9813 75.7597 15.5627 75.5464 16.064C75.333 16.5653 75.029 16.9867 74.6344 17.328C74.2504 17.6693 73.797 17.9253 73.2744 18.096C72.7517 18.2773 72.1864 18.368 71.5784 18.368C70.9597 18.368 70.389 18.2773 69.8664 18.096C69.3437 17.9253 68.8904 17.6693 68.5064 17.328C68.1224 16.9867 67.8237 16.5653 67.6104 16.064C67.397 15.5627 67.2904 14.9813 67.2904 14.32V6.8ZM79.6545 14.24C79.8892 14.656 80.1452 15.0187 80.4225 15.328C80.7105 15.6373 81.0252 15.8773 81.3665 16.048C81.7078 16.2187 82.0758 16.304 82.4705 16.304C82.9292 16.304 83.3025 16.1867 83.5905 15.952C83.8785 15.7173 84.0225 15.3973 84.0225 14.992C84.0225 14.64 83.9318 14.3573 83.7505 14.144C83.5798 13.9307 83.3185 13.744 82.9665 13.584C82.6252 13.4133 82.2038 13.232 81.7025 13.04C81.4358 12.944 81.1265 12.816 80.7745 12.656C80.4332 12.4853 80.1078 12.272 79.7985 12.016C79.4892 11.7493 79.2332 11.4293 79.0305 11.056C78.8278 10.672 78.7265 10.2133 78.7265 9.68C78.7265 9.04 78.8865 8.49067 79.2065 8.032C79.5372 7.56267 79.9798 7.20533 80.5345 6.96C81.0998 6.704 81.7292 6.576 82.4225 6.576C83.1372 6.576 83.7505 6.69867 84.2625 6.944C84.7852 7.17867 85.2172 7.48267 85.5585 7.856C85.9105 8.21867 86.1825 8.59733 86.3745 8.992L84.5825 9.984C84.4332 9.71733 84.2518 9.47733 84.0385 9.264C83.8358 9.04 83.6012 8.864 83.3345 8.736C83.0678 8.59733 82.7638 8.528 82.4225 8.528C81.9745 8.528 81.6385 8.63467 81.4145 8.848C81.1905 9.05067 81.0785 9.29067 81.0785 9.568C81.0785 9.84533 81.1692 10.0907 81.3505 10.304C81.5318 10.5067 81.8092 10.704 82.1825 10.896C82.5558 11.0773 83.0252 11.264 83.5905 11.456C83.9532 11.584 84.2998 11.744 84.6305 11.936C84.9718 12.128 85.2758 12.3627 85.5425 12.64C85.8198 12.9067 86.0332 13.2267 86.1825 13.6C86.3425 13.9627 86.4225 14.384 86.4225 14.864C86.4225 15.408 86.3158 15.8933 86.1025 16.32C85.8892 16.7467 85.5958 17.1093 85.2225 17.408C84.8492 17.696 84.4278 17.9147 83.9585 18.064C83.4998 18.224 83.0145 18.304 82.5025 18.304C81.8198 18.304 81.1798 18.176 80.5825 17.92C79.9958 17.6533 79.4838 17.296 79.0465 16.848C78.6092 16.4 78.2678 15.9147 78.0225 15.392L79.6545 14.24Z" fill="white"/>
<path d="M24.0358 15.0594L21.8886 17.842L16.5298 17.8749" stroke="#ACDB88" stroke-width="2" stroke-miterlimit="10"/>
<path d="M21.1874 20.4972L17.9288 21.8249L13.2764 19.1694" stroke="#ACDB88" stroke-width="2" stroke-miterlimit="10"/>
<path d="M15.9883 23.7742L12.5084 23.2892L9.81958 18.6563" stroke="#ACDB88" stroke-width="2" stroke-miterlimit="10"/>
<path d="M9.85284 24L7.08398 21.8342V16.4762" stroke="#ACDB88" stroke-width="2" stroke-miterlimit="10"/>
<path d="M4.42823 21.1137L3.11914 17.8509L5.80795 13.218" stroke="#ACDB88" stroke-width="2" stroke-miterlimit="10"/>
<path d="M1.18359 15.897L1.69216 12.4176L6.34459 9.75739" stroke="#ACDB88" stroke-width="2" stroke-miterlimit="10"/>
<path d="M1 9.75737L3.18495 7.00305L8.54372 7.036" stroke="#ACDB88" stroke-width="2" stroke-miterlimit="10"/>
<path d="M3.91943 4.35262L7.19215 3.06726L11.8116 5.78863" stroke="#ACDB88" stroke-width="2" stroke-miterlimit="10"/>
<path d="M9.16064 1.14612L12.6358 1.67815L15.2634 6.34404" stroke="#ACDB88" stroke-width="2" stroke-miterlimit="10"/>
<path d="M15.301 1L18.0416 3.20347L17.971 8.56147" stroke="#ACDB88" stroke-width="2" stroke-miterlimit="10"/>
<path d="M20.6833 3.95709L21.95 7.23404L19.2 11.834" stroke="#ACDB88" stroke-width="2" stroke-miterlimit="10"/>
<path d="M23.8572 9.21631L23.3062 12.6863L18.6208 15.2853" stroke="#ACDB88" stroke-width="2" stroke-miterlimit="10"/>
</svg>
