<svg width="109" height="33" viewBox="0 0 109 33" fill="none" xmlns="http://www.w3.org/2000/svg">
<path d="M36.3029 23.6826V9.19169H39.0433V21.2536H44.7524V23.6826H36.3029ZM56.4627 23.6826L55.3001 19.9872H50.1515L49.0097 23.6826H46.2277L51.0857 9.19169H54.4905L59.3069 23.6826H56.4627ZM52.7673 11.683H52.6635L50.8158 17.6413H54.6358L52.7673 11.683ZM61.4427 23.6826V9.19169H67.9615C68.6259 9.19169 69.221 9.30242 69.747 9.52386C70.2867 9.73147 70.7435 10.036 71.1172 10.4373C71.4908 10.8249 71.7746 11.2954 71.9683 11.8491C72.1621 12.4027 72.259 13.0117 72.259 13.676C72.259 14.3542 72.1621 14.9701 71.9683 15.5237C71.7746 16.0635 71.4908 16.534 71.1172 16.9354C70.7435 17.3229 70.2867 17.6274 69.747 17.8489C69.221 18.0565 68.6259 18.1603 67.9615 18.1603H64.1831V23.6826H61.4427ZM64.1831 15.7936H67.7124C68.2383 15.7936 68.6536 15.6552 68.958 15.3784C69.2625 15.0877 69.4148 14.6794 69.4148 14.1535V13.1985C69.4148 12.6726 69.2625 12.2712 68.958 11.9944C68.6536 11.7176 68.2383 11.5792 67.7124 11.5792H64.1831V15.7936ZM74.1404 23.6826V21.482H76.0504V11.3923H74.1404V9.19169H80.7215V11.3923H78.7908V21.482H80.7215V23.6826H74.1404ZM86.1162 9.19169V18.098C86.1162 19.2329 86.3308 20.0841 86.7598 20.6516C87.2027 21.219 87.9432 21.5028 88.9812 21.5028C90.0192 21.5028 90.7528 21.219 91.1818 20.6516C91.6247 20.0841 91.8462 19.2329 91.8462 18.098V9.19169H94.545V17.7451C94.545 18.8108 94.4412 19.7312 94.2336 20.5062C94.0399 21.2813 93.7215 21.9249 93.2786 22.437C92.8358 22.9491 92.2545 23.3297 91.5348 23.5788C90.8289 23.8141 89.9708 23.9317 88.9604 23.9317C87.9362 23.9317 87.0712 23.8141 86.3654 23.5788C85.6733 23.3297 85.1059 22.9491 84.663 22.437C84.2201 21.9249 83.9018 21.2813 83.708 20.5062C83.5142 19.7312 83.4173 18.8108 83.4173 17.7451V9.19169H86.1162ZM102.36 23.9317C101.114 23.9317 100.056 23.7103 99.1836 23.2674C98.3255 22.8245 97.585 22.2432 96.9622 21.5235L98.8099 19.7381C99.3082 20.3194 99.8618 20.7623 100.471 21.0668C101.094 21.3713 101.779 21.5235 102.526 21.5235C103.37 21.5235 104.007 21.3436 104.436 20.9837C104.865 20.61 105.08 20.1118 105.08 19.489C105.08 19.0046 104.941 18.6101 104.664 18.3056C104.388 18.0011 103.869 17.7797 103.107 17.6413L101.737 17.4337C98.8445 16.9769 97.3982 15.5721 97.3982 13.2193C97.3982 12.5688 97.5158 11.9805 97.7511 11.4546C98.0002 10.9287 98.3532 10.4789 98.8099 10.1052C99.2666 9.73147 99.8133 9.44774 100.45 9.25397C101.1 9.04637 101.834 8.94257 102.651 8.94257C103.744 8.94257 104.699 9.12249 105.516 9.48234C106.332 9.84219 107.031 10.375 107.612 11.0809L105.744 12.8456C105.384 12.4027 104.948 12.0428 104.436 11.766C103.924 11.4892 103.28 11.3508 102.505 11.3508C101.716 11.3508 101.121 11.503 100.72 11.8075C100.332 12.0982 100.139 12.5134 100.139 13.0532C100.139 13.6068 100.298 14.0151 100.616 14.278C100.934 14.541 101.446 14.7348 102.152 14.8593L103.502 15.1085C104.969 15.3714 106.048 15.842 106.74 16.5202C107.446 17.1845 107.799 18.1188 107.799 19.3229C107.799 20.0149 107.675 20.6446 107.426 21.2121C107.19 21.7657 106.837 22.2501 106.367 22.6653C105.91 23.0667 105.343 23.3781 104.664 23.5996C104 23.821 103.232 23.9317 102.36 23.9317Z" fill="white"/>
<g clip-path="url(#clip0_238_1212)">
<path d="M27.3541 15.1544H20.6684L26.459 12.2825C26.8187 12.1041 27.0811 11.8103 27.1886 11.4657C27.2961 11.121 27.2399 10.7539 27.0323 10.4448C26.8246 10.1359 26.4825 9.91046 26.0814 9.81811C25.6802 9.72575 25.2527 9.77404 24.893 9.95235L19.1019 12.8238L22.4448 7.84975C22.6523 7.54073 22.7086 7.17355 22.601 6.82894C22.4935 6.48432 22.2311 6.1905 21.8714 6.01205C21.5117 5.83359 21.0842 5.78518 20.6829 5.87747C20.2816 5.96975 19.9394 6.19518 19.7316 6.50416L16.3887 11.4783V5.73525C16.3887 5.37837 16.2237 5.03611 15.9299 4.78376C15.6361 4.53142 15.2377 4.38965 14.8222 4.38965C14.4068 4.38965 14.0083 4.53142 13.7145 4.78376C13.4208 5.03611 13.2557 5.37837 13.2557 5.73525V11.4783L9.91283 6.50416C9.70509 6.19521 9.36303 5.96978 8.96184 5.87743C8.56066 5.78508 8.1332 5.83336 7.77345 6.01167C7.59526 6.09999 7.43908 6.2176 7.31381 6.35777C7.18854 6.49795 7.09664 6.65795 7.04336 6.82863C6.99008 6.99931 6.97646 7.17734 7.00328 7.35255C7.0301 7.52775 7.09683 7.6967 7.19966 7.84975L10.5421 12.8235L4.75191 9.95235C4.39216 9.77404 3.9647 9.72575 3.56351 9.81811C3.16233 9.91046 2.82026 10.1359 2.61253 10.4448C2.40491 10.7538 2.34863 11.121 2.45606 11.4656C2.56349 11.8102 2.82583 12.104 3.18542 12.2825L8.97606 15.1544H2.29028C1.87482 15.1544 1.47637 15.2962 1.1826 15.5485C0.888826 15.8009 0.723785 16.1431 0.723785 16.5C0.723785 16.8569 0.888826 17.1992 1.1826 17.4515C1.47637 17.7038 1.87482 17.8456 2.29028 17.8456H8.97606L3.18542 20.7175C2.82583 20.896 2.56349 21.1899 2.45606 21.5345C2.34863 21.8791 2.40491 22.2462 2.61253 22.5552C2.82026 22.8641 3.16233 23.0896 3.56351 23.1819C3.9647 23.2743 4.39216 23.226 4.75191 23.0477L10.5421 20.1766L7.19966 25.1503C6.99208 25.4593 6.93587 25.8265 7.04339 26.1711C7.1509 26.5157 7.41334 26.8095 7.773 26.988C8.13273 27.1664 8.56026 27.2149 8.96155 27.1226C9.36284 27.0303 9.70502 26.8049 9.91283 26.4959L13.2557 21.5222V27.2648C13.2557 27.6217 13.4208 27.9639 13.7145 28.2163C14.0083 28.4686 14.4068 28.6104 14.8222 28.6104C15.2377 28.6104 15.6361 28.4686 15.9299 28.2163C16.2237 27.9639 16.3887 27.6217 16.3887 27.2648V21.5222L19.7316 26.4959C19.9393 26.8048 20.2814 27.0303 20.6826 27.1226C21.0838 27.215 21.5112 27.1667 21.871 26.9884C22.2306 26.8099 22.4931 26.5161 22.6006 26.1715C22.7081 25.8269 22.6519 25.4597 22.4443 25.1507L19.1019 20.1766L24.8925 23.0477C25.2523 23.226 25.6797 23.2743 26.0809 23.1819C26.4821 23.0896 26.8242 22.8641 27.0319 22.5552C27.2395 22.2462 27.2958 21.8791 27.1884 21.5345C27.0809 21.1899 26.8186 20.896 26.459 20.7175L20.6684 17.8456H27.3541C27.7696 17.8456 28.168 17.7038 28.4618 17.4515C28.7556 17.1992 28.9206 16.8569 28.9206 16.5C28.9206 16.1431 28.7556 15.8009 28.4618 15.5485C28.168 15.2962 27.7696 15.1544 27.3541 15.1544Z" fill="#6747FE"/>
</g>
<defs>
<clipPath id="clip0_238_1212">
<rect width="28.6444" height="24.6052" fill="white" transform="translate(0.5 4.19775)"/>
</clipPath>
</defs>
</svg>
