<svg width="25" height="26" viewBox="0 0 25 26" fill="none" xmlns="http://www.w3.org/2000/svg">
<g clip-path="url(#clip0_253_35)">
<path d="M23.267 11.6428H17.4743L22.4915 8.74602C22.8031 8.56604 23.0305 8.26966 23.1236 7.92207C23.2168 7.57447 23.1681 7.20411 22.9882 6.89242C22.8082 6.5808 22.5119 6.35342 22.1643 6.26026C21.8167 6.16711 21.4463 6.21581 21.1346 6.39566L16.1171 9.29202L19.0134 4.27487C19.1933 3.96318 19.242 3.59282 19.1488 3.24522C19.0557 2.89762 18.8283 2.60125 18.5167 2.42127C18.205 2.24126 17.8346 2.19243 17.4869 2.28551C17.1392 2.3786 16.8427 2.60597 16.6627 2.91763L13.7663 7.93478V2.14206C13.7663 1.7821 13.6233 1.43688 13.3688 1.18234C13.1143 0.927812 12.7691 0.784817 12.4091 0.784817C12.0491 0.784817 11.7039 0.927812 11.4494 1.18234C11.1948 1.43688 11.0518 1.7821 11.0518 2.14206V7.93478L8.15549 2.91763C7.9755 2.60601 7.67913 2.37863 7.33153 2.28548C6.98394 2.19232 6.61358 2.24103 6.30188 2.42088C6.1475 2.50997 6.01218 2.62859 5.90364 2.76998C5.79511 2.91137 5.71548 3.07275 5.66932 3.24491C5.62316 3.41707 5.61135 3.59664 5.63459 3.77336C5.65783 3.95008 5.71564 4.1205 5.80474 4.27487L8.70071 9.29164L3.68395 6.39566C3.37225 6.21581 3.00189 6.16711 2.6543 6.26026C2.3067 6.35342 2.01033 6.5808 1.83034 6.89242C1.65046 7.20406 1.6017 7.57439 1.69478 7.92198C1.78785 8.26957 2.01515 8.56597 2.32671 8.74602L7.34386 11.6428H1.55114C1.19117 11.6428 0.845954 11.7858 0.591421 12.0403C0.336888 12.2948 0.193893 12.6401 0.193893 13C0.193893 13.36 0.336888 13.7052 0.591421 13.9597C0.845954 14.2143 1.19117 14.3573 1.55114 14.3573H7.34386L2.32671 17.254C2.01515 17.4341 1.78785 17.7305 1.69478 18.0781C1.6017 18.4256 1.65046 18.796 1.83034 19.1076C2.01033 19.4192 2.3067 19.6466 2.6543 19.7398C3.00189 19.8329 3.37225 19.7842 3.68395 19.6044L8.70071 16.7084L5.80474 21.7252C5.62489 22.0369 5.57619 22.4072 5.66934 22.7548C5.76249 23.1024 5.98988 23.3988 6.30149 23.5788C6.61318 23.7588 6.9836 23.8076 7.33128 23.7145C7.67896 23.6214 7.97544 23.3941 8.15549 23.0824L11.0518 18.0656V23.858C11.0518 24.2179 11.1948 24.5632 11.4494 24.8177C11.7039 25.0722 12.0491 25.2152 12.4091 25.2152C12.7691 25.2152 13.1143 25.0722 13.3688 24.8177C13.6233 24.5632 13.7663 24.2179 13.7663 23.858V18.0656L16.6627 23.0824C16.8427 23.394 17.1391 23.6214 17.4867 23.7146C17.8342 23.8077 18.2046 23.759 18.5163 23.5792C18.8279 23.3992 19.0553 23.1028 19.1485 22.7552C19.2416 22.4076 19.1929 22.0372 19.0131 21.7255L16.1171 16.7084L21.1342 19.6044C21.4459 19.7842 21.8163 19.8329 22.1639 19.7398C22.5115 19.6466 22.8079 19.4192 22.9878 19.1076C23.1677 18.796 23.2165 18.4256 23.1234 18.0781C23.0303 17.7305 22.803 17.4341 22.4915 17.254L17.4743 14.3573H23.267C23.627 14.3573 23.9722 14.2143 24.2268 13.9597C24.4813 13.7052 24.6243 13.36 24.6243 13C24.6243 12.6401 24.4813 12.2948 24.2268 12.0403C23.9722 11.7858 23.627 11.6428 23.267 11.6428Z" fill="#8A5CF9"/>
</g>
<defs>
<clipPath id="clip0_253_35">
<rect width="24.8182" height="24.8182" fill="white" transform="translate(0 0.590912)"/>
</clipPath>
</defs>
</svg>
