<svg width="118" height="32" viewBox="0 0 118 32" fill="none" xmlns="http://www.w3.org/2000/svg">
<path d="M31.5805 24.0455V6.72237H34.8565V21.1417H41.6815V24.0455H31.5805ZM55.6806 24.0455L54.2907 19.6278H48.1358L46.7708 24.0455H43.4452L49.2526 6.72237H53.3228L59.0806 24.0455H55.6806ZM51.2629 9.70055H51.1388L48.93 16.8234H53.4966L51.2629 9.70055ZM61.6338 24.0455V6.72237H69.4267C70.2209 6.72237 70.9324 6.85473 71.5611 7.11946C72.2064 7.36764 72.7524 7.73164 73.1991 8.21146C73.6458 8.67473 73.985 9.23727 74.2166 9.89909C74.4483 10.5609 74.5641 11.2889 74.5641 12.0831C74.5641 12.8938 74.4483 13.6301 74.2166 14.2919C73.985 14.9372 73.6458 15.4997 73.1991 15.9795C72.7524 16.4428 72.2064 16.8068 71.5611 17.0715C70.9324 17.3197 70.2209 17.4438 69.4267 17.4438H64.9098V24.0455H61.6338ZM64.9098 14.6145H69.1289C69.7576 14.6145 70.254 14.4491 70.618 14.1182C70.982 13.7707 71.164 13.2826 71.164 12.6539V11.5123C71.164 10.8835 70.982 10.4037 70.618 10.0728C70.254 9.74191 69.7576 9.57646 69.1289 9.57646H64.9098V14.6145ZM76.8132 24.0455V21.4147H79.0965V9.35309H76.8132V6.72237H84.6806V9.35309H82.3725V21.4147H84.6806V24.0455H76.8132ZM91.1296 6.72237V17.3694C91.1296 18.7261 91.3861 19.7436 91.899 20.422C92.4285 21.1004 93.3136 21.4395 94.5545 21.4395C95.7955 21.4395 96.6724 21.1004 97.1853 20.422C97.7147 19.7436 97.9795 18.7261 97.9795 17.3694V6.72237H101.206V16.9475C101.206 18.2215 101.082 19.3217 100.834 20.2483C100.602 21.1748 100.221 21.9442 99.6919 22.5564C99.1625 23.1685 98.4675 23.6235 97.6072 23.9214C96.7634 24.2026 95.7375 24.3433 94.5297 24.3433C93.3054 24.3433 92.2713 24.2026 91.4275 23.9214C90.6002 23.6235 89.9218 23.1685 89.3924 22.5564C88.8629 21.9442 88.4824 21.1748 88.2507 20.2483C88.0191 19.3217 87.9033 18.2215 87.9033 16.9475V6.72237H91.1296ZM110.548 24.3433C109.059 24.3433 107.793 24.0785 106.751 23.5491C105.725 23.0196 104.84 22.3247 104.095 21.4644L106.304 19.33C106.9 20.0249 107.562 20.5544 108.29 20.9184C109.034 21.2824 109.853 21.4644 110.747 21.4644C111.756 21.4644 112.517 21.2493 113.03 20.8191C113.543 20.3724 113.799 19.7767 113.799 19.0322C113.799 18.4531 113.634 17.9815 113.303 17.6175C112.972 17.2535 112.352 16.9888 111.442 16.8234L109.804 16.5752C106.346 16.0292 104.617 14.3498 104.617 11.5371C104.617 10.7595 104.757 10.0563 105.038 9.42755C105.336 8.79882 105.758 8.26109 106.304 7.81437C106.85 7.36764 107.504 7.02846 108.265 6.79682C109.042 6.54864 109.919 6.42455 110.896 6.42455C112.203 6.42455 113.344 6.63964 114.32 7.06982C115.297 7.5 116.132 8.137 116.827 8.98082L114.593 11.0904C114.163 10.5609 113.642 10.1307 113.03 9.79982C112.418 9.46891 111.648 9.30346 110.722 9.30346C109.779 9.30346 109.067 9.48546 108.587 9.84946C108.124 10.1969 107.893 10.6933 107.893 11.3385C107.893 12.0004 108.083 12.4885 108.463 12.8028C108.844 13.1172 109.456 13.3488 110.3 13.4977L111.913 13.7955C113.667 14.1099 114.957 14.6725 115.785 15.4832C116.629 16.2774 117.05 17.3942 117.05 18.8336C117.05 19.6609 116.902 20.4137 116.604 21.0921C116.322 21.7539 115.901 22.333 115.338 22.8294C114.792 23.3092 114.114 23.6815 113.303 23.9462C112.509 24.2109 111.59 24.3433 110.548 24.3433Z" fill="#1E1A1C"/>
<g clip-path="url(#clip0_253_33)">
<path d="M23.267 14.6428H17.4743L22.4915 11.746C22.8031 11.566 23.0305 11.2697 23.1236 10.9221C23.2168 10.5745 23.1681 10.2041 22.9882 9.89242C22.8082 9.5808 22.5119 9.35342 22.1643 9.26026C21.8167 9.16711 21.4463 9.21581 21.1346 9.39566L16.1171 12.292L19.0134 7.27487C19.1933 6.96318 19.242 6.59282 19.1488 6.24522C19.0557 5.89762 18.8283 5.60125 18.5167 5.42127C18.205 5.24126 17.8346 5.19243 17.4869 5.28551C17.1392 5.3786 16.8427 5.60597 16.6627 5.91763L13.7663 10.9348V5.14206C13.7663 4.7821 13.6233 4.43688 13.3688 4.18234C13.1143 3.92781 12.7691 3.78482 12.4091 3.78482C12.0491 3.78482 11.7039 3.92781 11.4494 4.18234C11.1948 4.43688 11.0518 4.7821 11.0518 5.14206V10.9348L8.15549 5.91763C7.9755 5.60601 7.67913 5.37863 7.33153 5.28548C6.98394 5.19232 6.61358 5.24103 6.30188 5.42088C6.1475 5.50997 6.01218 5.62859 5.90364 5.76998C5.79511 5.91137 5.71548 6.07275 5.66932 6.24491C5.62316 6.41707 5.61135 6.59664 5.63459 6.77336C5.65783 6.95008 5.71564 7.1205 5.80474 7.27487L8.70071 12.2916L3.68395 9.39566C3.37225 9.21581 3.00189 9.16711 2.6543 9.26026C2.3067 9.35342 2.01033 9.5808 1.83034 9.89242C1.65046 10.2041 1.6017 10.5744 1.69478 10.922C1.78785 11.2696 2.01515 11.566 2.32671 11.746L7.34386 14.6428H1.55114C1.19117 14.6428 0.845954 14.7858 0.591421 15.0403C0.336888 15.2948 0.193893 15.6401 0.193893 16C0.193893 16.36 0.336888 16.7052 0.591421 16.9597C0.845954 17.2143 1.19117 17.3573 1.55114 17.3573H7.34386L2.32671 20.254C2.01515 20.4341 1.78785 20.7305 1.69478 21.0781C1.6017 21.4256 1.65046 21.796 1.83034 22.1076C2.01033 22.4192 2.3067 22.6466 2.6543 22.7398C3.00189 22.8329 3.37225 22.7842 3.68395 22.6044L8.70071 19.7084L5.80474 24.7252C5.62489 25.0369 5.57619 25.4072 5.66934 25.7548C5.76249 26.1024 5.98988 26.3988 6.30149 26.5788C6.61318 26.7588 6.9836 26.8076 7.33128 26.7145C7.67896 26.6214 7.97544 26.3941 8.15549 26.0824L11.0518 21.0656V26.858C11.0518 27.2179 11.1948 27.5632 11.4494 27.8177C11.7039 28.0722 12.0491 28.2152 12.4091 28.2152C12.7691 28.2152 13.1143 28.0722 13.3688 27.8177C13.6233 27.5632 13.7663 27.2179 13.7663 26.858V21.0656L16.6627 26.0824C16.8427 26.394 17.1391 26.6214 17.4867 26.7146C17.8342 26.8077 18.2046 26.759 18.5163 26.5792C18.8279 26.3992 19.0553 26.1028 19.1485 25.7552C19.2416 25.4076 19.1929 25.0372 19.0131 24.7255L16.1171 19.7084L21.1342 22.6044C21.4459 22.7842 21.8163 22.8329 22.1639 22.7398C22.5115 22.6466 22.8079 22.4192 22.9878 22.1076C23.1677 21.796 23.2165 21.4256 23.1234 21.0781C23.0303 20.7305 22.803 20.4341 22.4915 20.254L17.4743 17.3573H23.267C23.627 17.3573 23.9722 17.2143 24.2268 16.9597C24.4813 16.7052 24.6243 16.36 24.6243 16C24.6243 15.6401 24.4813 15.2948 24.2268 15.0403C23.9722 14.7858 23.627 14.6428 23.267 14.6428Z" fill="#8A5CF9"/>
</g>
<defs>
<clipPath id="clip0_253_33">
<rect width="24.8182" height="24.8182" fill="white" transform="translate(0 3.59091)"/>
</clipPath>
</defs>
</svg>
