<svg width="200" height="200" viewBox="0 0 200 200" fill="none" xmlns="http://www.w3.org/2000/svg">
<g clip-path="url(#clip0_52_213)">
<path d="M84.481 77.915L82.7742 73.2812C82.1739 71.6513 81.0881 70.2447 79.6634 69.2511C78.2386 68.2575 76.5435 67.7247 74.8065 67.7246H43.54C41.803 67.7246 40.1078 68.2573 38.683 69.2509C37.2583 70.2445 36.1725 71.6512 35.5722 73.2812L33.8655 77.915C33.4777 78.9676 32.7766 79.876 31.8565 80.5176C30.9365 81.1593 29.8418 81.5034 28.7201 81.5035H24.8679C17.244 81.5035 11.0635 87.684 11.0635 95.3079V109.072H157.909V95.3079C157.909 87.684 151.729 81.5035 144.105 81.5035H89.6264C88.5047 81.5035 87.4099 81.1595 86.4898 80.5178C85.5697 79.8762 84.8686 78.9677 84.481 77.915Z" fill="url(#paint0_linear_52_213)"/>
<path d="M118.786 139.108L49.8308 70.1533C43.9249 64.2473 43.9249 54.6712 49.8308 48.7652L95.0783 3.51783C99.7687 -1.17261 107.373 -1.17261 112.064 3.51783L185.421 76.8752C190.111 81.5656 190.111 89.17 185.421 93.8605L140.174 139.108C134.268 145.014 124.692 145.014 118.786 139.108Z" fill="url(#paint1_linear_52_213)"/>
<path d="M171.804 107.478C170.975 92.9164 158.87 81.3228 144.104 81.3228H128.929C125.079 81.3228 121.957 84.4443 121.957 88.2949C121.957 92.1455 125.079 95.267 128.929 95.267L157.908 121.373L171.804 107.478Z" fill="#C2C8CF"/>
<path d="M82.5232 69.6516C81.9214 69.6523 81.3254 69.5342 80.7694 69.3039C80.2134 69.0736 79.7084 68.7358 79.2833 68.3098C77.4941 66.5205 77.4941 63.6197 79.2833 61.8301L105.942 35.1715C107.732 33.3823 110.632 33.3823 112.422 35.1715C114.211 36.9608 114.211 39.8616 112.422 41.6512L85.763 68.3098C85.3381 68.7359 84.833 69.0738 84.277 69.3041C83.721 69.5343 83.125 69.6525 82.5232 69.6516ZM101.682 88.8106C101.08 88.8114 100.484 88.6933 99.9283 88.463C99.3723 88.2327 98.8673 87.8948 98.4423 87.4687C96.6531 85.6795 96.6531 82.7787 98.4423 80.9891L125.101 54.3305C126.89 52.5408 129.791 52.5412 131.581 54.3305C133.37 56.1197 133.37 59.0209 131.581 60.8102L104.922 87.4687C104.497 87.8947 103.992 88.2325 103.436 88.4628C102.88 88.6931 102.284 88.8112 101.682 88.8106Z" fill="#C2C8CF"/>
<path d="M157.908 175.356L84.4852 189.075L11.0625 175.356V109.071C11.0625 101.447 17.243 95.2671 24.8669 95.2671H144.104C151.728 95.2671 157.909 101.448 157.909 109.071L157.908 175.356Z" fill="url(#paint2_linear_52_213)"/>
<path d="M11.0625 175.356V182.618C11.0625 192.218 18.845 200 28.445 200H140.526C150.126 200 157.908 192.218 157.908 182.618V175.356H11.0625Z" fill="url(#paint3_linear_52_213)"/>
<path d="M84.4859 163.491C100.049 163.491 112.665 150.875 112.665 135.312C112.665 119.749 100.049 107.132 84.4859 107.132C68.9229 107.132 56.3066 119.749 56.3066 135.312C56.3066 150.875 68.9229 163.491 84.4859 163.491Z" fill="#013838"/>
<path d="M100.055 139.548L97.0649 143.423L89.6025 143.469" stroke="#ACDB88" stroke-width="2.7851" stroke-miterlimit="10"/>
<path d="M96.0868 147.121L91.5491 148.97L85.0703 145.272" stroke="#ACDB88" stroke-width="2.7851" stroke-miterlimit="10"/>
<path d="M88.849 151.684L84.0031 151.009L80.2588 144.557" stroke="#ACDB88" stroke-width="2.7851" stroke-miterlimit="10"/>
<path d="M80.3069 152L76.4512 148.984V141.523" stroke="#ACDB88" stroke-width="2.7851" stroke-miterlimit="10"/>
<path d="M72.7458 147.978L70.9229 143.434L74.6671 136.983" stroke="#ACDB88" stroke-width="2.7851" stroke-miterlimit="10"/>
<path d="M68.2314 140.715L68.9396 135.869L75.4184 132.165" stroke="#ACDB88" stroke-width="2.7851" stroke-miterlimit="10"/>
<path d="M67.9736 132.165L71.0163 128.33L78.4786 128.375" stroke="#ACDB88" stroke-width="2.7851" stroke-miterlimit="10"/>
<path d="M72.0381 124.64L76.5955 122.85L83.0283 126.64" stroke="#ACDB88" stroke-width="2.7851" stroke-miterlimit="10"/>
<path d="M79.3379 120.174L84.1773 120.915L87.8363 127.412" stroke="#ACDB88" stroke-width="2.7851" stroke-miterlimit="10"/>
<path d="M87.8877 119.971L91.7041 123.039L91.6058 130.5" stroke="#ACDB88" stroke-width="2.7851" stroke-miterlimit="10"/>
<path d="M95.383 124.086L97.1469 128.65L93.3174 135.055" stroke="#ACDB88" stroke-width="2.7851" stroke-miterlimit="10"/>
<path d="M99.8036 131.414L99.0364 136.246L92.5117 139.865" stroke="#ACDB88" stroke-width="2.7851" stroke-miterlimit="10"/>
</g>
<defs>
<linearGradient id="paint0_linear_52_213" x1="11.0635" y1="67.7246" x2="157.909" y2="67.7246" gradientUnits="userSpaceOnUse">
<stop stop-color="#41C4A6"/>
<stop offset="0.216" stop-color="#46C6A9"/>
<stop offset="0.488" stop-color="#56CDB2"/>
<stop offset="0.79" stop-color="#70D7C0"/>
<stop offset="1" stop-color="#86E0CD"/>
</linearGradient>
<linearGradient id="paint1_linear_52_213" x1="117.17" y1="121.004" x2="117.17" y2="17.1465" gradientUnits="userSpaceOnUse">
<stop stop-color="#D4DBDB"/>
<stop offset="1" stop-color="#F3F3F3"/>
</linearGradient>
<linearGradient id="paint2_linear_52_213" x1="11.0625" y1="95.2671" x2="157.909" y2="95.2671" gradientUnits="userSpaceOnUse">
<stop stop-color="#5BD9BB"/>
<stop offset="0.253" stop-color="#60DABD"/>
<stop offset="0.573" stop-color="#70DEC4"/>
<stop offset="0.926" stop-color="#8AE4CF"/>
<stop offset="1" stop-color="#90E6D2"/>
</linearGradient>
<linearGradient id="paint3_linear_52_213" x1="11.0625" y1="175.356" x2="157.908" y2="175.356" gradientUnits="userSpaceOnUse">
<stop stop-color="#41C4A6"/>
<stop offset="0.216" stop-color="#46C6A9"/>
<stop offset="0.488" stop-color="#56CDB2"/>
<stop offset="0.79" stop-color="#70D7C0"/>
<stop offset="1" stop-color="#86E0CD"/>
</linearGradient>
<clipPath id="clip0_52_213">
<rect width="200" height="200" fill="white"/>
</clipPath>
</defs>
</svg>
