<svg width="200" height="39" viewBox="0 0 200 39" fill="none" xmlns="http://www.w3.org/2000/svg">
<path d="M60.2021 30.5633V10.3901H64.0252V27.1051H73.2933V30.5633H60.2021Z" fill="black"/>
<path d="M81.5474 30.9667C80.1186 30.9667 78.8345 30.6785 77.6954 30.1021C76.5561 29.5258 75.6583 28.69 75.0018 27.5949C74.3453 26.4998 74.0171 25.1838 74.0171 23.6467V23.1856C74.0171 21.6486 74.3453 20.3326 75.0018 19.2374C75.6583 18.1423 76.5561 17.3066 77.6954 16.7302C78.8345 16.1539 80.1186 15.8657 81.5474 15.8657C82.9762 15.8657 84.2603 16.1539 85.3995 16.7302C86.5386 17.3066 87.4365 18.1423 88.0931 19.2374C88.7495 20.3326 89.0778 21.6486 89.0778 23.1856V23.6467C89.0778 25.1838 88.7495 26.4998 88.0931 27.5949C87.4365 28.69 86.5386 29.5258 85.3995 30.1021C84.2603 30.6785 82.9762 30.9667 81.5474 30.9667ZM81.5474 27.739C82.6673 27.739 83.5941 27.3835 84.3279 26.6727C85.0615 25.9426 85.4285 24.9051 85.4285 23.5603V23.2721C85.4285 21.9272 85.0615 20.8993 84.3279 20.1884C83.6134 19.4584 82.6866 19.0933 81.5474 19.0933C80.4275 19.0933 79.5007 19.4584 78.767 20.1884C78.0332 20.8993 77.6664 21.9272 77.6664 23.2721V23.5603C77.6664 24.9051 78.0332 25.9426 78.767 26.6727C79.5007 27.3835 80.4275 27.739 81.5474 27.739Z" fill="black"/>
<path d="M90.4479 23.4738V23.0127C90.4479 21.5141 90.7471 20.2364 91.3457 19.1797C91.9443 18.1039 92.7359 17.2874 93.7206 16.7302C94.7247 16.1539 95.8156 15.8657 96.9935 15.8657C98.3064 15.8657 99.3009 16.0962 99.9766 16.5573C100.652 17.0184 101.145 17.4987 101.454 17.9982H101.975V16.2691H105.567V33.0992C105.567 34.0791 105.277 34.8572 104.698 35.4336C104.118 36.0292 103.346 36.327 102.381 36.327H92.7649V33.1569H101.106C101.647 33.1569 101.917 32.8687 101.917 32.2923V28.5747H101.396C101.203 28.8821 100.932 29.1991 100.585 29.5258C100.237 29.8331 99.774 30.0926 99.1947 30.3039C98.6154 30.5151 97.8817 30.6209 96.9935 30.6209C95.8156 30.6209 94.7247 30.3422 93.7206 29.7852C92.7359 29.2087 91.9443 28.3922 91.3457 27.3355C90.7471 26.2597 90.4479 24.9723 90.4479 23.4738ZM98.0362 27.4508C99.1561 27.4508 100.093 27.0953 100.846 26.3845C101.599 25.6736 101.975 24.6746 101.975 23.3874V23.0992C101.975 21.7927 101.599 20.7937 100.846 20.1019C100.112 19.3911 99.1754 19.0357 98.0362 19.0357C96.9162 19.0357 95.9798 19.3911 95.2268 20.1019C94.4737 20.7937 94.0972 21.7927 94.0972 23.0992V23.3874C94.0972 24.6746 94.4737 25.6736 95.2268 26.3845C95.9798 27.0953 96.9162 27.4508 98.0362 27.4508Z" fill="black"/>
<path d="M115.145 30.9667C113.716 30.9667 112.432 30.6785 111.293 30.1021C110.154 29.5258 109.256 28.69 108.599 27.5949C107.943 26.4998 107.615 25.1838 107.615 23.6467V23.1856C107.615 21.6486 107.943 20.3326 108.599 19.2374C109.256 18.1423 110.154 17.3066 111.293 16.7302C112.432 16.1539 113.716 15.8657 115.145 15.8657C116.574 15.8657 117.858 16.1539 118.997 16.7302C120.136 17.3066 121.034 18.1423 121.691 19.2374C122.347 20.3326 122.675 21.6486 122.675 23.1856V23.6467C122.675 25.1838 122.347 26.4998 121.691 27.5949C121.034 28.69 120.136 29.5258 118.997 30.1021C117.858 30.6785 116.574 30.9667 115.145 30.9667ZM115.145 27.739C116.265 27.739 117.192 27.3835 117.925 26.6727C118.659 25.9426 119.026 24.9051 119.026 23.5603V23.2721C119.026 21.9272 118.659 20.8993 117.925 20.1884C117.211 19.4584 116.284 19.0933 115.145 19.0933C114.025 19.0933 113.098 19.4584 112.364 20.1884C111.631 20.8993 111.264 21.9272 111.264 23.2721V23.5603C111.264 24.9051 111.631 25.9426 112.364 26.6727C113.098 27.3835 114.025 27.739 115.145 27.739Z" fill="black"/>
<path d="M124.741 30.5632V16.2691H128.39V30.5632H124.741ZM126.565 14.5977C125.908 14.5977 125.349 14.3863 124.885 13.9636C124.441 13.541 124.219 12.9838 124.219 12.2921C124.219 11.6005 124.441 11.0433 124.885 10.6207C125.349 10.198 125.908 9.98663 126.565 9.98663C127.241 9.98663 127.801 10.198 128.245 10.6207C128.689 11.0433 128.912 11.6005 128.912 12.2921C128.912 12.9838 128.689 13.541 128.245 13.9636C127.801 14.3863 127.241 14.5977 126.565 14.5977Z" fill="black"/>
<path d="M131.131 36.327V16.2691H134.722V17.9982H135.243C135.571 17.4411 136.082 16.9511 136.778 16.5284C137.472 16.0866 138.467 15.8657 139.762 15.8657C140.919 15.8657 141.991 16.1539 142.975 16.7302C143.961 17.2874 144.753 18.1135 145.35 19.2086C145.949 20.3037 146.249 21.6294 146.249 23.1856V23.6467C146.249 25.203 145.949 26.5286 145.35 27.6237C144.753 28.7188 143.961 29.5545 142.975 30.131C141.991 30.688 140.919 30.9667 139.762 30.9667C138.893 30.9667 138.158 30.8611 137.56 30.6496C136.981 30.4576 136.508 30.2077 136.141 29.9003C135.793 29.5737 135.513 29.2471 135.3 28.9205H134.779V36.327H131.131ZM138.66 27.7966C139.8 27.7966 140.736 27.4412 141.469 26.7303C142.222 26.0002 142.6 24.9436 142.6 23.5603V23.2721C142.6 21.8888 142.222 20.8417 141.469 20.1308C140.716 19.4007 139.78 19.0357 138.66 19.0357C137.541 19.0357 136.604 19.4007 135.851 20.1308C135.098 20.8417 134.722 21.8888 134.722 23.2721V23.5603C134.722 24.9436 135.098 26.0002 135.851 26.7303C136.604 27.4412 137.541 27.7966 138.66 27.7966Z" fill="black"/>
<path d="M154.263 30.9667C152.39 30.9667 150.855 30.5632 149.658 29.7563C148.461 28.9494 147.737 27.7966 147.486 26.2981L150.845 25.4334C150.981 26.106 151.202 26.6342 151.512 27.0185C151.84 27.4027 152.235 27.6814 152.7 27.8543C153.181 28.008 153.703 28.0848 154.263 28.0848C155.113 28.0848 155.741 27.9407 156.145 27.6525C156.551 27.3451 156.754 26.9705 156.754 26.5286C156.754 26.0866 156.561 25.7505 156.175 25.5199C155.788 25.2702 155.171 25.0685 154.322 24.9147L153.51 24.7706C152.506 24.5785 151.589 24.3191 150.759 23.9925C149.928 23.6467 149.262 23.176 148.76 22.5804C148.259 21.9849 148.007 21.2164 148.007 20.275C148.007 18.8531 148.529 17.7677 149.572 17.0184C150.614 16.2499 151.985 15.8657 153.684 15.8657C155.286 15.8657 156.619 16.221 157.681 16.9319C158.743 17.6428 159.437 18.5746 159.766 19.7274L156.378 20.7648C156.224 20.0348 155.905 19.516 155.422 19.2086C154.958 18.9012 154.379 18.7475 153.684 18.7475C152.989 18.7475 152.458 18.8724 152.091 19.1221C151.724 19.3527 151.541 19.6794 151.541 20.1019C151.541 20.563 151.734 20.909 152.12 21.1395C152.506 21.3507 153.027 21.5141 153.684 21.6294L154.495 21.7735C155.576 21.9656 156.551 22.225 157.42 22.5516C158.308 22.859 159.003 23.3105 159.506 23.9061C160.026 24.4825 160.288 25.2702 160.288 26.2692C160.288 27.7678 159.737 28.9302 158.637 29.7563C157.555 30.5632 156.098 30.9667 154.263 30.9667Z" fill="black"/>
<path d="M167.656 30.7938C166.536 30.7938 165.552 30.544 164.701 30.0445C163.871 29.5258 163.225 28.8149 162.761 27.9119C162.298 27.0089 162.066 25.9715 162.066 24.7994V16.269H165.716V24.5112C165.716 25.5871 165.976 26.394 166.498 26.9321C167.038 27.47 167.801 27.739 168.785 27.739C169.906 27.739 170.775 27.374 171.392 26.6439C172.011 25.8945 172.319 24.857 172.319 23.5314V16.269H175.969V30.5632H172.376V28.69H171.856C171.625 29.1703 171.189 29.641 170.553 30.1021C169.916 30.5632 168.95 30.7938 167.656 30.7938Z" fill="black"/>
<path d="M178.726 30.5633V16.2692H182.317V17.8254H182.838C183.09 17.3451 183.505 16.932 184.084 16.5863C184.663 16.2211 185.426 16.0387 186.372 16.0387C187.395 16.0387 188.217 16.2405 188.834 16.6438C189.452 17.0282 189.924 17.5372 190.253 18.1713H190.775C191.103 17.5565 191.566 17.0474 192.165 16.6438C192.764 16.2405 193.613 16.0387 194.713 16.0387C195.602 16.0387 196.403 16.2308 197.118 16.6151C197.851 16.9801 198.431 17.5469 198.855 18.3154C199.3 19.0647 199.521 20.0156 199.521 21.1684V30.5633H195.872V21.4278C195.872 20.6401 195.669 20.0541 195.264 19.6698C194.859 19.2664 194.289 19.0647 193.555 19.0647C192.725 19.0647 192.078 19.3336 191.615 19.8716C191.17 20.3903 190.949 21.1396 190.949 22.1194V30.5633H187.299V21.4278C187.299 20.6401 187.096 20.0541 186.691 19.6698C186.285 19.2664 185.716 19.0647 184.982 19.0647C184.151 19.0647 183.504 19.3336 183.041 19.8716C182.597 20.3903 182.375 21.1396 182.375 22.1194V30.5633H178.726Z" fill="black"/>
<path d="M48.6365 19.7566C48.6365 14.661 46.6021 9.77411 42.981 6.17098C39.3598 2.56786 34.4485 0.543641 29.3274 0.54364C24.2064 0.543639 19.2951 2.56786 15.6739 6.17098C12.0528 9.77411 10.0184 14.661 10.0184 19.7566H16.0526C18.0521 19.7566 19.6115 18.0893 20.3439 16.2379C20.8247 15.0225 21.5544 13.9054 22.5006 12.9638C24.3112 11.1622 26.7669 10.1501 29.3274 10.1501C31.888 10.1501 34.3437 11.1622 36.1543 12.9638C37.9648 14.7653 38.9819 17.2088 38.9819 19.7566H48.6365Z" fill="url(#paint0_linear_253_111)"/>
<path d="M37.5133 27.109C38.4837 24.778 38.9832 22.2796 38.9832 19.7566H48.6366C48.6366 30.3676 39.9916 38.9694 29.3276 38.9694C27.6575 38.9694 26.0369 38.7585 24.4915 38.3619C25.3659 38.1378 26.2254 37.8523 27.0633 37.507C29.406 36.5414 31.5346 35.1263 33.3276 33.3422C35.1207 31.5581 36.543 29.4401 37.5133 27.109Z" fill="black"/>
<path d="M0.364868 19.7565C0.364868 22.2796 0.86431 24.778 1.83468 27.109C2.80505 29.4401 4.22734 31.5581 6.02035 33.3422C7.81335 35.1262 9.94197 36.5414 12.2846 37.507C14.6273 38.4725 17.1382 38.9694 19.6739 38.9694C22.2095 38.9694 24.7204 38.4725 27.0631 37.507C29.4058 36.5414 31.5344 35.1262 33.3274 33.3422C35.1204 31.5581 36.5427 29.4401 37.5131 27.109C38.4834 24.778 38.983 22.2796 38.983 19.7565H32.9488C30.9492 19.7565 29.3899 21.4238 28.6575 23.275C28.6367 23.3278 28.6153 23.3803 28.5935 23.4328C28.1083 24.5983 27.3972 25.6573 26.5006 26.5493C25.6042 27.4413 24.5398 28.149 23.3685 28.6318C22.1972 29.1146 20.9418 29.363 19.6739 29.363C18.406 29.363 17.1506 29.1146 15.9793 28.6318C14.8079 28.149 13.7437 27.4413 12.8471 26.5493C11.9506 25.6573 11.2395 24.5983 10.7543 23.4328C10.2691 22.2672 10.0194 21.018 10.0194 19.7565H0.364868Z" fill="url(#paint1_linear_253_111)"/>
<path d="M0.366821 19.7566C0.366821 9.14554 9.01174 0.54364 19.6758 0.54364C21.3454 0.54364 22.9656 0.754495 24.5109 1.15092C21.1951 2.00086 18.1363 3.72091 15.6738 6.171C12.0527 9.77409 10.0184 14.661 10.0184 19.7566H0.366821Z" fill="black"/>
<defs>
<linearGradient id="paint0_linear_253_111" x1="48.6365" y1="10.1501" x2="10.0184" y2="10.1501" gradientUnits="userSpaceOnUse">
<stop/>
<stop offset="1" stop-color="#716767"/>
</linearGradient>
<linearGradient id="paint1_linear_253_111" x1="0.364869" y1="29.363" x2="38.983" y2="29.363" gradientUnits="userSpaceOnUse">
<stop/>
<stop offset="1" stop-color="#716767"/>
</linearGradient>
</defs>
</svg>
